<svg width="160" height="81" viewBox="0 0 160 81" fill="none" xmlns="http://www.w3.org/2000/svg">
<ellipse cx="80" cy="40.0873" rx="80" ry="40.0873" fill="#12162D"/>
<path d="M32.5933 60.3859L16.6177 60.4751L32.3766 16.9273C35.1111 12.1698 45.8576 3.63652 56.34 16.7935C52.4773 13.3912 49.9706 15.2729 48.8694 16.8351L32.5933 60.3859Z" fill="#54FBC9"/>
<path d="M80.5201 60.1183L56.34 16.7934L54.3685 15.4203L52.6458 14.5936L44.7913 13.1045L42.3779 14.6509L41.2268 16.8778L41.2401 19.5435L44.8495 24.776L64.5445 60.2075L80.5201 60.1183Z" fill="url(#paint0_linear_2_2)"/>
<path d="M64.6706 20.8199L80.6464 20.8145L64.6103 64.2793C61.8455 69.0224 51.0448 77.4993 40.6467 64.2875C44.4875 67.71 47.0062 65.8415 48.1173 64.285L64.6706 20.8199Z" fill="#54FBC9"/>
<path d="M16.7434 20.8361L40.6467 64.2874L42.6094 65.6709L44.3267 66.5066L52.1715 68.0369L54.5947 66.5032L55.76 64.2823L55.7637 61.6166L52.1877 56.3651L32.7191 20.8307L16.7434 20.8361Z" fill="url(#paint1_linear_2_2)"/>
<rect x="84.9547" y="21.1336" width="8.75803" height="37.1977" rx="3" fill="url(#paint2_linear_2_2)"/>
<path d="M122.902 58.3314L97.2803 21.2724L101.93 21.2723L106.066 21.2724H106.731L132.312 58.3314H122.902Z" fill="#54FBC9"/>
<ellipse cx="89.3339" cy="14.9684" rx="4.96288" ry="5.25003" fill="url(#paint3_linear_2_2)"/>
<path d="M123.473 21.3902H132.801L107.668 58.4492H97.7689L123.473 21.3902Z" fill="url(#paint4_linear_2_2)"/>
<defs>
<linearGradient id="paint0_linear_2_2" x1="60.7464" y1="13.0154" x2="61.0099" y2="60.2272" gradientUnits="userSpaceOnUse">
<stop stop-color="#54FBC9"/>
<stop offset="0.692708" stop-color="#54FBC9" stop-opacity="0"/>
</linearGradient>
<linearGradient id="paint1_linear_2_2" x1="36.2163" y1="68.0423" x2="36.2003" y2="20.8295" gradientUnits="userSpaceOnUse">
<stop stop-color="#54FBC9"/>
<stop offset="0.692708" stop-color="#54FBC9" stop-opacity="0"/>
</linearGradient>
<linearGradient id="paint2_linear_2_2" x1="89.3337" y1="21.1336" x2="89.3337" y2="58.3314" gradientUnits="userSpaceOnUse">
<stop stop-color="#54FBC9" stop-opacity="0"/>
<stop offset="0.0001" stop-color="#54FBC9"/>
</linearGradient>
<linearGradient id="paint3_linear_2_2" x1="89.3339" y1="9.71841" x2="89.3339" y2="20.2185" gradientUnits="userSpaceOnUse">
<stop offset="0.583333" stop-color="#54FBC9"/>
<stop offset="1" stop-color="white" stop-opacity="0"/>
</linearGradient>
<linearGradient id="paint4_linear_2_2" x1="115.285" y1="21.3902" x2="115.285" y2="58.4492" gradientUnits="userSpaceOnUse">
<stop offset="0.536458" stop-color="#54FBC9"/>
<stop offset="1" stop-color="#54FBC9" stop-opacity="0"/>
</linearGradient>
</defs>
</svg>
